<svg width="16" height="20" viewBox="0 0 16 20" fill="none" xmlns="http://www.w3.org/2000/svg">
<path opacity="0.2" d="M8 0.25C6.01088 0.25 4.10322 1.04018 2.6967 2.4467C1.29018 3.85322 0.5 5.76088 0.5 7.75C0.5 14.5 8 19.75 8 19.75C8 19.75 15.5 14.5 15.5 7.75C15.5 5.76088 14.7098 3.85322 13.3033 2.4467C11.8968 1.04018 9.98912 0.25 8 0.25ZM8 10.75C7.40666 10.75 6.82664 10.5741 6.33329 10.2444C5.83994 9.91476 5.45542 9.44623 5.22836 8.89805C5.0013 8.34987 4.94189 7.74667 5.05764 7.16473C5.1734 6.58279 5.45912 6.04824 5.87868 5.62868C6.29824 5.20912 6.83279 4.9234 7.41473 4.80764C7.99667 4.69189 8.59987 4.7513 9.14805 4.97836C9.69623 5.20542 10.1648 5.58994 10.4944 6.08329C10.8241 6.57664 11 7.15666 11 7.75C11 8.54565 10.6839 9.30871 10.1213 9.87132C9.55871 10.4339 8.79565 10.75 8 10.75Z" fill="#EF5F4C"/>
</svg>
